<svg xmlns="http://www.w3.org/2000/svg" viewBox="0 0 220 220">
<defs>
  <filter id="s" x="-20%" y="-20%" width="140%" height="140%"><feDropShadow dx="0" dy="6" stdDeviation="5" flood-opacity=".18"/></filter>
</defs>
<g filter="url(#s)">
  <ellipse cx="110" cy="190" rx="70" ry="16" fill="#ff9ed0" opacity=".35"/>
  <circle cx="110" cy="75" r="52" fill="#ffd8bf"/>
  <path d="M68 66c8-34 37-49 63-39 15 6 24 18 29 31-17-9-29-17-45-18-18-1-33 7-47 26z" fill="#6f4b3d"/>
  <path d="M110 30c-2-13 7-21 17-19 7 2 11 7 11 13-8-3-17 0-28 6z" fill="#6f4b3d"/>
  <path d="M130 21l14-8 7 12-15 7z" fill="#ff69b4"/>
  <circle cx="91" cy="77" r="5.5" fill="#333"/>
  <circle cx="129" cy="77" r="5.5" fill="#333"/>
  <path d="M96 99c9 10 20 10 28 0" fill="none" stroke="#d57974" stroke-width="5" stroke-linecap="round"/>
  <circle cx="78" cy="91" r="7" fill="#ffaaa8" opacity=".55"/>
  <circle cx="142" cy="91" r="7" fill="#ffaaa8" opacity=".55"/>
  <path d="M66 119h88l15 72H51z" fill="#ff79bb"/>
  <path d="M82 120l28 27 28-27" fill="#ffe5f2"/>
  <circle cx="110" cy="154" r="7" fill="#fff"/>
  <rect x="53" y="128" width="28" height="62" rx="14" fill="#ffd8bf" transform="rotate(13 67 159)"/>
  <rect x="139" y="128" width="28" height="62" rx="14" fill="#ffd8bf" transform="rotate(-13 153 159)"/>
  <rect x="77" y="176" width="25" height="30" rx="12" fill="#ffd8bf"/>
  <rect x="118" y="176" width="25" height="30" rx="12" fill="#ffd8bf"/>
  <ellipse cx="90" cy="203" rx="20" ry="10" fill="#c43b7f"/>
  <ellipse cx="130" cy="203" rx="20" ry="10" fill="#c43b7f"/>
</g></svg>